<svg preserveAspectRatio="none" width="100%" height="100%" overflow="visible" style="display: block;" viewBox="0 0 160 160" fill="none" xmlns="http://www.w3.org/2000/svg">
<g id="ar_on_you">
<mask id="mask0_43_456" style="mask-type:alpha" maskUnits="userSpaceOnUse" x="0" y="0" width="160" height="160">
<rect id="Bounding box" width="160" height="160" fill="var(--fill-0, #D9D9D9)"/>
</mask>
<g mask="url(#mask0_43_456)">
<path id="ar_on_you_2" d="M80 28C94.4444 28 106.722 33.0556 116.833 43.1667C126.944 53.2778 132 65.5556 132 80C132 94.4444 126.944 106.722 116.833 116.833C106.722 126.944 94.4444 132 80 132C65.5556 132 53.2778 126.944 43.1667 116.833C33.0556 106.722 28 94.4444 28 80C28 65.5556 33.0556 53.2778 43.1667 43.1667C53.2778 33.0556 65.5556 28 80 28ZM80 122C91.5556 122 101.444 117.889 109.667 109.667C117.889 101.444 122 91.5556 122 80C122 68.4444 117.889 58.5556 109.667 50.3333C101.444 42.1111 91.5556 38 80 38C68.4444 38 58.5556 42.1111 50.3333 50.3333C42.1111 58.5556 38 68.4444 38 80C38 91.5556 42.1111 101.444 50.3333 109.667C58.5556 117.889 68.4444 122 80 122ZM80 102.833C85.2222 102.833 89.9444 101.389 94.1667 98.5C98.3889 95.6111 101.556 91.7222 103.667 86.8333H56.3333C58.3333 91.7222 61.4722 95.6111 65.75 98.5C70.0278 101.389 74.7778 102.833 80 102.833ZM56.3333 66C56.3333 67.8422 56.9561 69.3861 58.2017 70.6317C59.4472 71.8772 60.9911 72.5 62.8333 72.5C64.6756 72.5 66.2194 71.8772 67.465 70.6317C68.7106 69.3861 69.3333 67.8422 69.3333 66C69.3333 64.1578 68.7106 62.6139 67.465 61.3683C66.2194 60.1228 64.6756 59.5 62.8333 59.5C60.9911 59.5 59.4472 60.1228 58.2017 61.3683C56.9561 62.6139 56.3333 64.1578 56.3333 66ZM90.6667 66C90.6667 67.8422 91.2895 69.3861 92.535 70.6317C93.7806 71.8772 95.3244 72.5 97.1667 72.5C99.0089 72.5 100.553 71.8772 101.798 70.6317C103.044 69.3861 103.667 67.8422 103.667 66C103.667 64.1578 103.044 62.6139 101.798 61.3683C100.553 60.1228 99.0089 59.5 97.1667 59.5C95.3244 59.5 93.7806 60.1228 92.535 61.3683C91.2895 62.6139 90.6667 64.1578 90.6667 66ZM6.66667 38.1667V16.6667C6.66667 13.9167 7.64611 11.5622 9.605 9.60333C11.5628 7.64555 13.9167 6.66667 16.6667 6.66667H38.1667V16.6667H16.6667V38.1667H6.66667ZM38.1667 153.333H16.6667C13.9167 153.333 11.5628 152.354 9.605 150.395C7.64611 148.437 6.66667 146.083 6.66667 143.333V121.833H16.6667V143.333H38.1667V153.333ZM121.833 152.667V142.667H143.333V121H153.333V142.667C153.333 145.417 152.354 147.771 150.397 149.728C148.438 151.687 146.083 152.667 143.333 152.667H121.833ZM143.333 38.1667V16.6667H121.833V6.66667H143.333C146.083 6.66667 148.438 7.64555 150.397 9.60333C152.354 11.5622 153.333 13.9167 153.333 16.6667V38.1667H143.333Z" fill="var(--fill-0, #1B1B21)"/>
</g>
</g>
</svg>
