<svg preserveAspectRatio="none" width="100%" height="100%" overflow="visible" style="display: block;" viewBox="0 0 23.5365 8.68375" fill="none" xmlns="http://www.w3.org/2000/svg">
<path id="wave-increment" d="M20 5.62224C20.7071 6.4708 21.9683 6.58544 22.8168 5.87832C23.6654 5.17119 23.78 3.91006 23.0729 3.0615L21.5364 4.34187L20 5.62224ZM11.5364 4.34188L13.0729 5.62224C14.8754 3.45925 18.1975 3.45925 20 5.62224L21.5364 4.34187L23.0729 3.0615C19.6712 -1.0205 13.4017 -1.0205 10 3.06151L11.5364 4.34188ZM11.5364 4.34188L10 3.06151C8.19751 5.2245 4.87538 5.2245 3.07289 3.06151L1.53644 4.34187L0 5.62224C3.40167 9.70425 9.67121 9.70425 13.0729 5.62224L11.5364 4.34188Z" fill="var(--stroke-0, #6750A4)"/>
</svg>
