<svg preserveAspectRatio="none" width="100%" height="100%" overflow="visible" style="display: block;" viewBox="0 0 120 120" fill="none" xmlns="http://www.w3.org/2000/svg">
<g id="mic">
<mask id="mask0_27_735" style="mask-type:alpha" maskUnits="userSpaceOnUse" x="0" y="0" width="120" height="120">
<rect id="Bounding box" width="120" height="120" fill="var(--fill-0, #D9D9D9)"/>
</mask>
<g mask="url(#mask0_27_735)">
<path id="mic_2" d="M60.0005 68.0837C56.223 68.0837 53.0426 66.7387 50.4592 64.0487C47.8759 61.3587 46.5842 58.0924 46.5842 54.2499V23.3337C46.5842 19.6295 47.888 16.4812 50.4955 13.8887C53.1038 11.2962 56.2705 9.99994 59.9955 9.99994C63.7213 9.99994 66.8897 11.2962 69.5005 13.8887C72.1113 16.4812 73.4167 19.6295 73.4167 23.3337V54.2499C73.4167 58.0924 72.1251 61.3587 69.5417 64.0487C66.9584 66.7387 63.778 68.0837 60.0005 68.0837ZM55.8342 105V88.5412C47.0559 87.5412 39.7226 83.7774 33.8342 77.2499C27.9451 70.7224 25.0005 63.0558 25.0005 54.2499H33.3342C33.3342 61.6108 35.9326 67.8262 41.1292 72.8962C46.3251 77.9654 52.6097 80.4999 59.983 80.4999C67.3555 80.4999 73.6459 77.9654 78.8542 72.8962C84.0626 67.8262 86.6667 61.6108 86.6667 54.2499H95.0005C95.0005 63.0558 92.0559 70.7224 86.1667 77.2499C80.2784 83.7774 72.9451 87.5412 64.1667 88.5412V105H55.8342Z" fill="var(--fill-0, #1C1B1F)"/>
</g>
</g>
</svg>
