<svg preserveAspectRatio="none" width="100%" height="100%" overflow="visible" style="display: block;" viewBox="0 0 24 24" fill="none" xmlns="http://www.w3.org/2000/svg">
<g id="widgets">
<mask id="mask0_13_1547" style="mask-type:alpha" maskUnits="userSpaceOnUse" x="0" y="0" width="24" height="24">
<rect id="Bounding box" width="24" height="24" fill="var(--fill-0, #D9D9D9)"/>
</mask>
<g mask="url(#mask0_13_1547)">
<path id="widgets_2" d="M16.975 12.35L11.65 7.02501L16.975 1.70001L22.3 7.02501L16.975 12.35ZM3 10.55V3.02501H10.525V10.55H3ZM13.45 21V13.475H20.975V21H13.45ZM3 21V13.475H10.525V21H3ZM4.5 9.05001H9.025V4.52501H4.5V9.05001ZM17.05 10.325L20.275 7.10001L17.05 3.87501L13.825 7.10001L17.05 10.325ZM14.95 19.5H19.475V14.975H14.95V19.5ZM4.5 19.5H9.025V14.975H4.5V19.5Z" fill="var(--fill-0, #21005D)"/>
</g>
</g>
</svg>
