<svg preserveAspectRatio="none" width="100%" height="100%" overflow="visible" style="display: block;" viewBox="0 0 40 40" fill="none" xmlns="http://www.w3.org/2000/svg">
<g id="mic">
<mask id="mask0_13_1209" style="mask-type:alpha" maskUnits="userSpaceOnUse" x="0" y="0" width="40" height="40">
<rect id="Bounding box" width="40" height="40" fill="var(--fill-0, #D9D9D9)"/>
</mask>
<g mask="url(#mask0_13_1209)">
<path id="mic_2" d="M20 22.6946C18.7408 22.6946 17.6807 22.2463 16.8196 21.3496C15.9585 20.4529 15.5279 19.3642 15.5279 18.0833V7.77792C15.5279 6.54319 15.9625 5.49375 16.8317 4.62958C17.7011 3.76542 18.7567 3.33333 19.9983 3.33333C21.2403 3.33333 22.2964 3.76542 23.1667 4.62958C24.0369 5.49375 24.4721 6.54319 24.4721 7.77792V18.0833C24.4721 19.3642 24.0415 20.4529 23.1804 21.3496C22.3193 22.2463 21.2592 22.6946 20 22.6946ZM18.6113 35V29.5138C15.6851 29.1804 13.2407 27.9258 11.2779 25.75C9.31486 23.5742 8.33333 21.0186 8.33333 18.0833H11.1113C11.1113 20.5369 11.9774 22.6088 13.7096 24.2988C15.4415 25.9885 17.5364 26.8333 19.9942 26.8333C22.4517 26.8333 24.5485 25.9885 26.2846 24.2988C28.0207 22.6088 28.8888 20.5369 28.8888 18.0833H31.6667C31.6667 21.0186 30.6851 23.5742 28.7221 25.75C26.7593 27.9258 24.3149 29.1804 21.3888 29.5138V35H18.6113Z" fill="var(--fill-0, #1C1B1F)"/>
</g>
</g>
</svg>
