<svg preserveAspectRatio="none" width="100%" height="100%" overflow="visible" style="display: block;" viewBox="0 0 27.073 12.6837" fill="none" xmlns="http://www.w3.org/2000/svg">
<path id="wave-increment" d="M20 8.90261C21.4143 10.5997 23.9365 10.829 25.6336 9.41476C27.3307 8.0005 27.56 5.47824 26.1458 3.78114L23.0729 6.34187L20 8.90261ZM13.0729 6.34188L16.1458 8.90261C17.1487 7.69913 18.9971 7.69913 20 8.90261L23.0729 6.34187L26.1458 3.78114C21.9445 -1.26038 14.2013 -1.26038 10 3.78114L13.0729 6.34188ZM13.0729 6.34188L10 3.78114C8.9971 4.98462 7.14867 4.98462 6.14577 3.78114L3.07289 6.34187L0 8.90261C4.20126 13.9441 11.9445 13.9441 16.1458 8.90261L13.0729 6.34188Z" fill="var(--stroke-0, #6750A4)"/>
</svg>
