<svg preserveAspectRatio="none" width="100%" height="100%" overflow="visible" style="display: block;" viewBox="0 0 43.0293 9.53968" fill="none" xmlns="http://www.w3.org/2000/svg">
<path id="wave-increment" d="M40 6.48482C40.9472 7.05312 42.1757 6.74599 42.744 5.79883C43.3123 4.85167 43.0051 3.62315 42.058 3.05485L41.029 4.76984L40 6.48482ZM21.029 4.76984L22.058 6.48482C27.5798 3.17173 34.4782 3.17172 40 6.48482L41.029 4.76984L42.058 3.05485C35.2694 -1.01828 26.7886 -1.01828 20 3.05485L21.029 4.76984ZM21.029 4.76984L20 3.05485C14.4782 6.36795 7.57981 6.36795 2.05798 3.05485L1.02899 4.76984L0 6.48482C6.78856 10.558 15.2694 10.558 22.058 6.48482L21.029 4.76984Z" fill="var(--stroke-0, #6750A4)"/>
</svg>
