<svg preserveAspectRatio="none" width="100%" height="100%" overflow="visible" style="display: block;" viewBox="0 0 24 24" fill="none" xmlns="http://www.w3.org/2000/svg">
<g id="landscape_2">
<mask id="mask0_8_2513" style="mask-type:alpha" maskUnits="userSpaceOnUse" x="0" y="0" width="24" height="24">
<rect id="Bounding box" width="24" height="24" fill="var(--fill-0, #D9D9D9)"/>
</mask>
<g mask="url(#mask0_8_2513)">
<path id="landscape_2_2" d="M1.15 20L4.6 13.1C4.76667 12.7667 5.00417 12.5 5.3125 12.3C5.62083 12.1 5.96667 12 6.35 12C6.75 12 7.11667 12.1042 7.45 12.3125C7.78333 12.5208 8.025 12.8167 8.175 13.2L8.85 14.85C8.88333 14.95 8.95833 14.9958 9.075 14.9875C9.19167 14.9792 9.26667 14.925 9.3 14.825L11.45 7.65C11.6833 6.85 12.1292 6.20833 12.7875 5.725C13.4458 5.24167 14.1917 5 15.025 5C15.8417 5 16.5708 5.2375 17.2125 5.7125C17.8542 6.1875 18.3 6.80833 18.55 7.575L22.875 20H20.75L16.65 8.2C16.5167 7.81667 16.3083 7.52083 16.025 7.3125C15.7417 7.10417 15.4083 7 15.025 7C14.6417 7 14.3042 7.10833 14.0125 7.325C13.7208 7.54167 13.5083 7.84167 13.375 8.225L11.225 15.4C11.075 15.8667 10.8042 16.25 10.4125 16.55C10.0208 16.85 9.575 17 9.075 17C8.625 17 8.20833 16.8792 7.825 16.6375C7.44167 16.3958 7.16667 16.0583 7 15.625L6.325 13.975L3.375 20H1.15ZM6 10C5.16667 10 4.45833 9.70417 3.875 9.1125C3.29167 8.52083 3 7.81667 3 7C3 6.16667 3.29167 5.45833 3.875 4.875C4.45833 4.29167 5.16667 4 6 4C6.83333 4 7.54167 4.29167 8.125 4.875C8.70833 5.45833 9 6.16667 9 7C9 7.81667 8.70833 8.52083 8.125 9.1125C7.54167 9.70417 6.83333 10 6 10ZM6 8C6.28333 8 6.52083 7.90417 6.7125 7.7125C6.90417 7.52083 7 7.28333 7 7C7 6.71667 6.90417 6.47917 6.7125 6.2875C6.52083 6.09583 6.28333 6 6 6C5.71667 6 5.47917 6.09583 5.2875 6.2875C5.09583 6.47917 5 6.71667 5 7C5 7.28333 5.09583 7.52083 5.2875 7.7125C5.47917 7.90417 5.71667 8 6 8Z" fill="var(--fill-0, #1C1B1F)"/>
</g>
</g>
</svg>
