<svg preserveAspectRatio="none" width="100%" height="100%" overflow="visible" style="display: block;" viewBox="0 0 46.0586 13.5397" fill="none" xmlns="http://www.w3.org/2000/svg">
<path id="wave-increment" d="M40 10.1998C41.8943 11.3364 44.3514 10.7221 45.488 8.82782C46.6245 6.9335 46.0103 4.47646 44.116 3.33987L42.058 6.76984L40 10.1998ZM22.058 6.76984L24.116 10.1998C29.0044 7.26673 35.1115 7.26673 40 10.1998L42.058 6.76984L44.116 3.33987C36.694 -1.11329 27.4219 -1.11329 20 3.33987L22.058 6.76984ZM22.058 6.76984L20 3.33987C15.1115 6.27295 9.00443 6.27295 4.11597 3.33987L2.05798 6.76984L0 10.1998C7.42192 14.653 16.694 14.653 24.116 10.1998L22.058 6.76984Z" fill="var(--stroke-0, #6750A4)"/>
</svg>
