<svg preserveAspectRatio="none" width="100%" height="100%" overflow="visible" style="display: block;" viewBox="0 0 38 38" fill="none" xmlns="http://www.w3.org/2000/svg">
<g id="Shape container">
<path id="Shape" d="M15.3091 3.60363C15.4924 3.454 15.584 3.37919 15.6677 3.31603C17.6389 1.82799 20.3611 1.82799 22.3323 3.31603C22.416 3.37919 22.5076 3.454 22.6909 3.60363C22.7727 3.67042 22.8136 3.70381 22.8541 3.7356C23.7818 4.46445 24.9191 4.87748 26.0993 4.91409C26.1508 4.91569 26.2037 4.91634 26.3094 4.91765C26.5462 4.92059 26.6646 4.92206 26.7694 4.92733C29.2381 5.05162 31.3234 6.79743 31.8747 9.20154C31.8982 9.30358 31.9202 9.41966 31.9642 9.65183C31.9838 9.75547 31.9937 9.80729 32.0042 9.85759C32.2452 11.0109 32.8504 12.0567 33.7309 12.8416C33.7693 12.8759 33.8094 12.9103 33.8895 12.9791C34.069 13.1332 34.1588 13.2102 34.2357 13.2815C36.0467 14.96 36.5194 17.6347 35.393 19.8299C35.3451 19.9231 35.2872 20.0262 35.1714 20.2322C35.1196 20.3242 35.0938 20.3702 35.0694 20.4155C34.5111 21.4536 34.3009 22.6428 34.4697 23.8088C34.4771 23.8597 34.4856 23.9117 34.5027 24.0158C34.5409 24.249 34.56 24.3656 34.573 24.4695C34.879 26.9168 33.5179 29.2689 31.2407 30.2281C31.1441 30.2688 31.0333 30.3106 30.8118 30.3942C30.7129 30.4315 30.6635 30.4501 30.6156 30.4692C29.5192 30.9063 28.592 31.6826 27.9701 32.684C27.943 32.7277 27.916 32.7731 27.862 32.8637C27.741 33.0669 27.6806 33.1685 27.6236 33.2564C26.2814 35.3273 23.7233 36.2563 21.3609 35.5306C21.2606 35.4998 21.1489 35.4608 20.9253 35.3827C20.8256 35.3479 20.7757 35.3305 20.7268 35.3144C19.6052 34.9461 18.3948 34.9461 17.2732 35.3144C17.2243 35.3305 17.1744 35.3479 17.0747 35.3827C16.8511 35.4608 16.7394 35.4998 16.6391 35.5306C14.2767 36.2563 11.7186 35.3273 10.3764 33.2564C10.3194 33.1685 10.259 33.0669 10.138 32.8637C10.084 32.7731 10.057 32.7277 10.0299 32.684C9.40803 31.6826 8.48083 30.9063 7.38436 30.4692C7.33654 30.4501 7.28709 30.4315 7.18821 30.3942C6.96669 30.3106 6.85593 30.2688 6.75928 30.2281C4.48205 29.2689 3.12097 26.9168 3.42698 24.4695C3.43997 24.3656 3.45908 24.249 3.4973 24.0158C3.51436 23.9117 3.52289 23.8597 3.53026 23.8088C3.69906 22.6429 3.48889 21.4536 2.93056 20.4155C2.90621 20.3702 2.88035 20.3242 2.82863 20.2322C2.71278 20.0262 2.65485 19.9231 2.60704 19.8299C1.48057 17.6347 1.95327 14.96 3.76433 13.2815C3.8412 13.2102 3.93096 13.1332 4.11047 12.9791C4.19061 12.9103 4.23068 12.8759 4.26908 12.8416C5.14958 12.0567 5.75476 11.0109 5.99583 9.8576C6.00635 9.80729 6.01617 9.75547 6.03582 9.65183C6.07984 9.41966 6.10185 9.30357 6.12525 9.20154C6.67662 6.79743 8.76192 5.05162 11.2306 4.92733C11.3354 4.92206 11.4538 4.92059 11.6906 4.91765C11.7963 4.91634 11.8492 4.91569 11.9007 4.91409C13.0809 4.87748 14.2182 4.46445 15.1459 3.7356C15.1864 3.70381 15.2273 3.67042 15.3091 3.60363Z" fill="var(--fill-0, #6750A4)"/>
</g>
</svg>
